# Alias OBJ Model File
# Exported from SketchUp, (c) 2000-2012 Trimble Navigation Limited
# File units = inches

mtllib MainDeck_Base_Middle_2.mtl

g Mesh1 Model

usemtl FrontColor
v 406.436 82.371 -569.242
vt -406.436 82.371
vn 0 0 -1
v 368.593 82.371 -569.242
vt -368.593 82.371
v 368.593 121.5 -569.242
vt -368.593 121.5
v 457.052 121.5 -569.242
vt -457.052 121.5
f 1/1/1 2/2/1 3/3/1 4/4/1 

vt -368.593 569.242
vn 7.51044e-016 -1 -6.19443e-016
vt -406.436 569.242
v 406.123 82.371 -271.383
vt -406.123 271.383
v 368.28 82.371 -271.383
vt -368.28 271.383
f 2/5/2 1/6/2 5/7/2 6/8/2 

vt 271.809 371.658
vn 0.61076 -0.791815 0.000640782
vt 569.668 371.658
v 456.852 121.5 -271.383
vt 271.862 435.724
f 5/9/3 1/10/3 7/11/3

vt 569.548 435.609
vn 0.611612 -0.791158 0.000410217
vt 271.689 435.609
vt 569.514 371.632
f 4/12/4 7/13/4 1/14/4

vt 456.852 271.383
vn 2.74548e-016 1 5.11423e-016
vt 457.052 569.242
vt 368.593 569.242
v 368.48 121.5 -569.242
vt 368.48 569.242
v 368.28 121.5 -271.383
vt 368.28 271.383
f 7/15/5 4/16/5 3/17/5 8/18/5 9/19/5 

vt -368.48 121.5
f 3/3/1 2/2/1 8/20/1

vt -569.628 81.3106
vn -0.999995 -0.00288076 -0.00104915
vt -271.769 81.3106
vt -569.628 120.44
f 2/21/6 6/22/6 8/23/6

vt -271.63 121.5
vn -1 0 -0.000670714
vt -569.489 121.5
vt -271.63 82.371
f 9/24/7 8/25/7 6/26/7

vt 368.28 82.371
vn -2.17084e-015 -1.49826e-015 1
vt 406.123 82.371
vt 456.852 121.5
vt 368.28 121.5
f 6/27/8 5/28/8 7/29/8 9/30/8 

v 457.164 121.5 -569.242
vt -457.164 121.5
f 4/4/1 10/31/1 1/1/1

