# Alias OBJ Model File
# Exported from SketchUp, (c) 2000-2012 Trimble Navigation Limited
# File units = inches

mtllib MainDeck_Base_Middle_1.mtl

g Mesh1 Model

usemtl FrontColor
v 270.586 58.0575 -461.801
vt 461.801 58.0575
vn 1 0 -0
v 270.586 97.5817 -461.801
vt 461.801 97.5817
v 270.586 97.5817 -163.773
vt 163.773 97.5817
v 270.586 58.0575 -163.773
vt 163.773 58.0575
f 1/1/1 2/2/1 3/3/1 4/4/1 

vt -270.586 58.0575
vn 0 0 -1
v 234.259 58.0575 -461.801
vt -234.259 58.0575
v 182.667 97.5817 -461.801
vt -182.667 97.5817
vt -270.586 97.5817
f 1/5/2 5/6/2 6/7/2 2/8/2 

vt -234.259 461.801
vn 0 -1 -0
vt -270.586 461.801
vt -270.586 163.773
v 234.259 58.0575 -163.773
vt -234.259 163.773
f 5/9/3 1/10/3 4/11/3 7/12/3 

vt 234.259 58.0575
vn 0 0 1
vt 270.586 58.0575
vt 270.586 97.5817
v 182.667 97.5817 -163.773
vt 182.667 97.5817
f 7/13/4 4/14/4 3/15/4 8/16/4 

vt 270.586 461.801
vn 1.29308e-015 1 -0
vt 182.667 461.801
vt 182.667 163.773
vt 270.586 163.773
f 2/17/5 6/18/5 8/19/5 3/20/5 

vt -461.801 -85.6618
vn -0.608146 -0.793825 -4.40146e-032
vt -461.801 -150.653
vt -163.773 -150.653
vt -163.773 -85.6618
f 6/21/6 5/22/6 7/23/6 8/24/6 

