# Alias OBJ Model File
# Exported from SketchUp, (c) 2000-2012 Trimble Navigation Limited
# File units = inches

mtllib MainDeck_Base_Top_2.mtl

g Mesh1 Model

usemtl FrontColor
v 265.172 114.57 -636.617
vt 265.172 114.57
vn 0 0 1
v 298.427 96.751 -636.617
vt 298.427 96.751
v 345.489 96.751 -636.617
vt 345.489 96.751
v 345.489 114.57 -636.617
vt 345.489 114.57
f 1/1/1 2/2/1 3/3/1 4/4/1 

vt -636.617 -217.347
vn -0.47231 -0.881433 -0
vt -636.617 -179.619
v 265.172 114.57 -726.555
vt -726.555 -179.619
v 298.427 96.751 -726.555
vt -726.555 -217.347
f 2/5/2 1/6/2 5/7/2 6/8/2 

vt 265.172 636.617
vn 3.82178e-016 1 -0
vt 345.489 636.617
v 345.489 114.57 -726.555
vt 345.489 726.555
vt 265.172 726.555
f 1/9/3 4/10/3 7/11/3 5/12/3 

vt 636.617 114.57
vn 1 0 -0
vt 636.617 96.751
v 345.489 96.751 -726.555
vt 726.555 96.751
vt 726.555 114.57
f 4/13/4 3/14/4 8/15/4 7/16/4 

vt -345.489 636.617
vn 0 -1 -0
vt -298.427 636.617
vt -298.427 726.555
vt -345.489 726.555
f 3/17/5 2/18/5 6/19/5 8/20/5 

vt -298.427 96.751
vn 0 0 -1
vt -265.172 114.57
vt -345.489 114.57
vt -345.489 96.751
f 6/21/6 5/22/6 7/23/6 8/24/6 

