# Alias OBJ Model File
# Exported from SketchUp, (c) 2000-2012 Trimble Navigation Limited
# File units = inches

mtllib MainDeck_Base.mtl

g Mesh1 Model

usemtl Color_003
v 281.853 121.5 -462.551
vt 281.853 462.551
vn 0 1 -0
v 278.699 121.5 -462.551
vt 278.699 462.551
v 278.699 121.5 -461.801
vt 278.699 461.801
v 281.853 121.5 -461.801
vt 281.853 461.801
f 1/1/1 2/2/1 3/3/1 4/4/1 

v 40.3433 121.5 -461.801
vt 40.3433 461.801
v 40.3433 121.5 -462.551
vt 40.3433 462.551
f 5/5/1 3/3/1 2/2/1 6/6/1 

usemtl FrontColor
v 159.521 28.6447 -461.801
vt -159.521 28.6447
vn 0 0 -1
v 37.1886 121.5 -461.801
vt -37.1886 121.5
vt -40.3433 121.5
vt -278.699 121.5
f 7/7/2 8/8/2 5/9/2 3/10/2 

v 159.521 28.6447 -162.551
vt -162.551 -109.745
vn -0.604599 -0.79653 -8.08973e-018
v 37.1886 121.5 -162.551
vt -162.551 43.837
vt -461.801 43.837
vt -461.801 -109.745
f 9/11/3 10/12/3 8/13/3 7/14/3 

vt 37.1886 121.5
vn 0 0 1
vt 159.521 28.6447
v 278.699 121.5 -162.551
vt 278.699 121.5
v 40.3433 121.5 -162.551
vt 40.3433 121.5
f 10/15/4 9/16/4 11/17/4 12/18/4 

vt 162.551 294.521
vn 0.614607 -0.788834 9.10193e-033
vt 162.551 143.441
vt 461.801 143.441
vt 461.801 294.521
f 11/19/5 9/20/5 7/21/5 3/22/5 

vt 278.699 162.551
v 281.853 121.5 -162.551
vt 281.853 162.551
f 4/4/1 3/3/1 11/23/1 13/24/1 

vt -37.1886 461.801
vn -9.00937e-015 -1 -0
vt -40.3433 461.801
vt -40.3433 162.551
vt -37.1886 162.551
f 8/25/6 5/26/6 12/27/6 10/28/6 

usemtl Color_003
v 37.1886 121.5 -462.551
vt -37.1886 462.551
vn -9.00937e-015 -1 7.12381e-031
vt -40.3433 462.551
f 14/29/7 6/30/7 5/26/7 8/25/7 

