# Alias OBJ Model File
# Exported from SketchUp, (c) 2000-2012 Trimble Navigation Limited
# File units = inches

mtllib DriverDeck_Base_1.mtl

g Mesh1 Model

usemtl FrontColor
v 1.92796 -1.80121 -12.5228
vt 12.5228 -1.80121
vn 1 0 -0
v 1.92796 -1.78774 -14.9806
vt 14.9806 -1.78774
v 1.92796 7.05665 -14.2463
vt 14.2463 7.05665
v 1.92796 10.9281 -11.9776
vt 11.9776 10.9281
v 1.92796 13.9622 -8.6717
vt 8.6717 13.9622
v 1.92796 15.8912 -4.62034
vt 4.62034 15.8912
v 1.92796 16.545 -0.181037
vt 0.181037 16.545
v 1.92796 15.8658 4.25445
vt -4.25445 15.8658
v 1.92796 13.9136 8.29471
vt -8.29471 13.9136
v 1.92796 10.8607 11.5832
vt -11.5832 10.8607
v 1.92796 6.97637 13.8298
vt -13.8298 6.97637
v 1.92796 2.60348 14.8361
vt -14.8361 2.60348
v 1.92796 -1.87208 14.5134
vt -14.5134 -1.87208
v 1.92796 -1.8715 12.0556
vt -12.0556 -1.8715
v 1.92796 -1.86974 9.59773
vt -9.59773 -1.86974
v 1.92796 -1.86681 7.13988
vt -7.13988 -1.86681
v 1.92796 -1.86271 4.68204
vt -4.68204 -1.86271
v 1.92796 -1.85744 2.2242
vt -2.2242 -1.85744
v 1.92796 -1.851 -0.233643
vt 0.233643 -1.851
v 1.92796 -1.84338 -2.69148
vt 2.69148 -1.84338
v 1.92796 -1.8346 -5.14931
vt 5.14931 -1.8346
v 1.92796 -1.82464 -7.60714
vt 7.60714 -1.82464
v 1.92796 -1.81351 -10.065
vt 10.065 -1.81351
f 1/1/1 2/2/1 3/3/1 4/4/1 5/5/1 6/6/1 7/7/1 8/8/1 9/9/1 10/10/1 11/11/1 12/12/1 13/13/1 14/14/1 15/15/1 16/16/1 17/17/1 18/18/1 19/19/1 20/20/1 21/21/1 22/22/1 23/23/1 

v 1.92796 2.6896 -15.2777
vt 15.2777 2.6896
f 24/24/1 3/3/1 2/2/1

vt 7.39932 6.09889
vn 0.393918 -0.076046 0.915994
vt 7.6894 -2.77119
v 8.05336 7.53162 -16.8411
vt 14.0515 6.57524
f 3/25/2 2/26/2 25/27/2

v 14.1788 8.00659 -19.4358
vt 20.7038 7.05159
f 25/27/2 2/26/2 26/28/2

v 93.9085 14.1889 -53.2099
vt 107.291 13.2519
f 26/28/2 2/26/2 27/29/2

v 235.989 25.206 -113.396
vt 261.591 24.301
f 27/29/2 2/26/2 28/30/2

vt 8.0155 -5.54039
vn 0.398953 -0.299546 0.866665
v 235.989 -1.3125 -122.562
vt 265.617 -5.04228
vt 261.784 22.7525
f 2/31/3 29/32/3 28/33/3

vt 107.636 8.40811
vn 0.371735 -0.491446 0.787588
vt 261.814 21.0582
v 235.989 49.0098 -98.543
vt 255.474 48.3904
vt 7.82436 0.218644
vt 14.4713 0.764018
vt 21.1182 1.30939
f 27/34/4 28/35/4 30/36/4 3/37/4 25/38/4 26/39/4 

vt 255.534 48.0599
vn 0.372469 -0.46922 0.800687
vt 6.80003 4.93616
vt 7.75694 0.552199
f 30/40/5 4/41/5 3/42/5

vt 7.32575 1.82645
vn 0.352697 -0.660055 0.663274
vt 254.628 52.5199
v 235.989 68.8979 -78.7514
vt 245.336 78.9944
f 4/43/6 30/44/6 31/45/6

vt 244.551 81.3984
vn 0.351427 -0.689752 0.633042
vt 5.89458 5.52516
vt 7.49915 1.33467
f 31/46/7 5/47/7 4/48/7

vt 6.43486 3.57025
vn 0.33726 -0.796245 0.502245
vt 239.819 94.3769
v 235.989 83.8668 -55.0201
vt 226.589 119.12
f 5/49/8 31/50/8 32/51/8

vt 217.033 135.76
vn 0.334362 -0.850909 0.405162
vt 4.42784 6.3598
vt 7.00653 2.68758
f 32/52/9 6/53/9 5/54/9

vt 4.66897 5.57646
vn 0.326432 -0.891852 0.313116
vt 203.066 155.856
v 235.989 93.1613 -28.5465
vt 183.961 176.404
f 6/55/10 32/56/10 33/57/10

vt 118.866 225.464
vn 0.323174 -0.936241 0.137884
vt 0.923107 7.40697
vt 5.00629 5.54621
f 33/58/11 7/59/11 6/60/11

vt 0.778369 7.26279
vn 0.320947 -0.941105 0.106368
vt 101.338 233.862
v 235.989 96.3125 -0.666201
vt 74.8729 243.182
f 7/61/12 33/62/12 34/63/12

vt -96.1848 235.574
vn 0.318977 -0.936843 -0.143452
vt -4.67089 5.56157
vt -0.625657 7.50345
f 34/64/13 8/65/13 7/66/13

vt -4.64484 5.83189
vn 0.321193 -0.941022 -0.106359
vt -73.551 243.598
v 235.989 93.1613 27.2141
vt -100.018 234.284
f 8/67/14 34/68/14 35/69/14

vt -202.697 154.304
vn 0.321921 -0.852469 -0.411902
vt -6.62686 2.7145
vt -4.13891 6.44879
f 35/70/15 9/71/15 8/72/15

vt -7.32623 2.4296
vn 0.32718 -0.891608 -0.313031
vt -182.805 177.443
v 235.989 83.8668 53.6877
vt -201.934 156.917
f 9/73/16 35/74/16 36/75/16

vt -234.341 102.403
vn 0.331173 -0.69151 -0.64198
vt -7.0238 1.33807
vt -5.51617 5.5644
f 36/76/17 10/77/17 9/78/17

vt -8.07485 -0.20911
vn 0.338539 -0.795856 -0.502
vt -225.673 120.365
v 235.989 68.8979 77.419
vt -238.942 95.6433
f 10/79/18 36/80/18 37/81/18

vt -247.476 70.6796
vn 0.345049 -0.46991 -0.812481
vt -7.18056 0.53061
vt -6.30239 4.93102
f 37/82/19 11/83/19 10/84/19

vt -8.22344 -2.19944
vn 0.35455 -0.659561 -0.662777
vt -244.604 80.1813
v 235.989 49.0098 97.2106
vt -253.94 53.7221
v 143.645 32.4263 64.3143
vt -156.997 31.6593
v 139.973 31.7669 63.0061
vt -153.142 30.782
f 11/85/20 37/86/20 38/87/20 39/88/20 40/89/20 

v 235.989 25.206 112.064
vt -261.242 21.2532
vn 0.36922 -0.491977 -0.788439
vt -157.363 29.5466
vt -254.943 48.5948
f 41/90/21 39/91/21 38/92/21

v 139.973 15.934 72.1791
vt -157.388 11.5013
vn 0.377452 -0.465733 -0.80039
v 141.809 24.1802 68.2467
vt -157.372 20.8198
vt -157.355 30.1383
vt -261.245 21.9791
f 42/93/22 43/94/22 39/95/22 41/96/22 

v 70.9503 17.1852 38.9211
vt -80.7726 12.8979
vn 0.377263 -0.465733 -0.800478
v 106.38 20.6827 53.5839
vt -119.072 16.8502
vt -157.371 20.8025
vt -157.387 11.4841
f 44/97/23 45/98/23 43/99/23 42/100/23 

v 106.601 24.7168 51.3613
vt -118.324 21.4213
vn 0.377626 -0.462659 -0.802088
vt -119.071 16.8709
vt -80.7706 12.9258
f 46/101/24 45/102/24 44/103/24

vt -157.359 30.0671
vn 0.376877 -0.462775 -0.802373
vt -119.068 16.8196
vt -118.323 21.3703
f 39/104/25 45/105/25 46/106/25

vt -157.356 30.121
f 45/98/23 39/107/23 43/99/23

vt -157.243 30.3089
vn 0.361269 -0.209123 -0.908709
vt -118.034 22.4251
vt -153.347 29.6346
f 39/108/26 46/109/26 40/110/26

vt -80.3099 14.7232
vt -7.27258 -0.188208
vt -6.9008 4.28355
f 44/111/26 12/112/26 11/113/26 40/110/26 46/109/26 

vt -80.7728 12.9209
vn 0.377639 -0.464187 -0.801199
vt -157.387 11.5084
vt -8.0694 -3.54186
f 44/114/27 42/115/27 12/116/27

v 235.989 -1.3125 121.23
vt -264.938 -5.45634
vn 0.390478 -0.300736 -0.870106
vt -7.83333 -1.35027
vt -157.255 12.6273
vt -261.185 22.3494
f 47/117/28 12/118/28 42/119/28 41/120/28 

vt -7.90716 3.42932
vn 0.413829 0.0654631 -0.907998
vt -265.014 -0.495086
vt -7.77334 -1.05587
f 12/121/29 47/122/29 13/123/29

