# Alias OBJ Model File
# Exported from SketchUp, (c) 2000-2012 Trimble Navigation Limited
# File units = inches

mtllib DriverDeck_BaseEngine.mtl

g Mesh1 Model

usemtl FrontColor
v 61.8886 0.63991 -93.7467
vt -61.6166 0.63991
vn 0.00289822 0 -0.999996
v -48.7491 0.63991 -94.0674
vt 49.0215 0.63991
v -48.7491 29.7256 -94.0674
vt 49.0215 29.7256
v 61.8886 29.7256 -93.7467
vt -61.6166 29.7256
f 1/1/1 2/2/1 3/3/1 4/4/1 

vt -61.8886 93.7467
vn 0 -1 -0
v 0.361709 0.63991 -0.696967
vt -0.361709 0.696967
vt 48.7491 94.0674
f 1/5/2 5/6/2 2/7/2

vt 0.780869 0.63991
vn 0.834139 0 0.551554
vt 112.333 0.63991
vt 112.333 29.7256
v 0.361709 29.7256 -0.696967
vt 0.780869 29.7256
f 5/8/3 1/9/3 4/10/3 6/11/3 

vt 0.361709 0.696967
vn 0 1 -0
vt 61.8886 93.7467
vt -48.7491 94.0674
f 6/12/4 4/13/4 3/14/4

vt -105.947 0.63991
vn -0.885041 0 0.465512
vt -0.448464 0.63991
vt -0.448464 29.7256
vt -105.947 29.7256
f 2/15/5 5/16/5 6/17/5 3/18/5 

